<svg width="20" height="20" viewBox="0 0 20 20" fill="none" xmlns="http://www.w3.org/2000/svg">
<path d="M5.58317 7.74984C5.43039 7.90262 5.354 8.09706 5.354 8.33317C5.354 8.56928 5.43039 8.76373 5.58317 8.9165L9.4165 12.7498C9.49984 12.8332 9.59011 12.8921 9.68734 12.9265C9.78456 12.9609 9.88873 12.9784 9.99984 12.979C10.1109 12.979 10.2187 12.9582 10.3232 12.9165C10.4276 12.8748 10.5143 12.8193 10.5832 12.7498L14.4165 8.9165C14.5693 8.76373 14.6457 8.56928 14.6457 8.33317C14.6457 8.09706 14.5693 7.90262 14.4165 7.74984C14.2637 7.59706 14.0693 7.52067 13.8332 7.52067C13.5971 7.52067 13.4026 7.59706 13.2498 7.74984L9.99984 10.9998L6.74984 7.74984C6.59706 7.59706 6.40261 7.52067 6.1665 7.52067C5.93039 7.52067 5.73595 7.59706 5.58317 7.74984Z" fill="black"/>
</svg>
