<svg width="20" height="20" viewBox="0 0 20 20" fill="none" xmlns="http://www.w3.org/2000/svg">
<path d="M5.58317 12.2502C5.43039 12.0974 5.354 11.9029 5.354 11.6668C5.354 11.4307 5.43039 11.2363 5.58317 11.0835L9.4165 7.25016C9.49984 7.16683 9.59011 7.10794 9.68734 7.0735C9.78456 7.03905 9.88873 7.02155 9.99984 7.021C10.1109 7.021 10.2187 7.04183 10.3232 7.0835C10.4276 7.12516 10.5143 7.18072 10.5832 7.25016L14.4165 11.0835C14.5693 11.2363 14.6457 11.4307 14.6457 11.6668C14.6457 11.9029 14.5693 12.0974 14.4165 12.2502C14.2637 12.4029 14.0693 12.4793 13.8332 12.4793C13.5971 12.4793 13.4026 12.4029 13.2498 12.2502L9.99984 9.00016L6.74984 12.2502C6.59706 12.4029 6.40261 12.4793 6.1665 12.4793C5.93039 12.4793 5.73595 12.4029 5.58317 12.2502Z" fill="black"/>
</svg>
