<svg width="199" height="39" viewBox="0 0 199 39" fill="none" xmlns="http://www.w3.org/2000/svg">
<path d="M6.388 24.248H14.452V29H0.232V3.728H6.388V24.248ZM26.5323 29.288C24.5643 29.288 22.7883 28.868 21.2043 28.028C19.6443 27.188 18.4083 25.988 17.4963 24.428C16.6083 22.868 16.1643 21.044 16.1643 18.956C16.1643 16.892 16.6203 15.08 17.5322 13.52C18.4443 11.936 19.6923 10.724 21.2763 9.884C22.8603 9.044 24.6363 8.624 26.6043 8.624C28.5723 8.624 30.3483 9.044 31.9323 9.884C33.5163 10.724 34.7643 11.936 35.6763 13.52C36.5883 15.08 37.0443 16.892 37.0443 18.956C37.0443 21.02 36.5763 22.844 35.6403 24.428C34.7283 25.988 33.4683 27.188 31.8603 28.028C30.2763 28.868 28.5003 29.288 26.5323 29.288ZM26.5323 23.96C27.7083 23.96 28.7043 23.528 29.5203 22.664C30.3603 21.8 30.7803 20.564 30.7803 18.956C30.7803 17.348 30.3723 16.112 29.5563 15.248C28.7643 14.384 27.7803 13.952 26.6043 13.952C25.4043 13.952 24.4083 14.384 23.6163 15.248C22.8243 16.088 22.4283 17.324 22.4283 18.956C22.4283 20.564 22.8123 21.8 23.5803 22.664C24.3723 23.528 25.3563 23.96 26.5323 23.96ZM39.0861 18.92C39.0861 16.856 39.4701 15.044 40.2381 13.484C41.0301 11.924 42.0981 10.724 43.4421 9.884C44.7861 9.044 46.2861 8.624 47.9421 8.624C49.3581 8.624 50.5941 8.912 51.6501 9.488C52.7301 10.064 53.5581 10.82 54.1341 11.756V8.912H60.2901V29H54.1341V26.156C53.5341 27.092 52.6941 27.848 51.6141 28.424C50.5581 29 49.3221 29.288 47.9061 29.288C46.2741 29.288 44.7861 28.868 43.4421 28.028C42.0981 27.164 41.0301 25.952 40.2381 24.392C39.4701 22.808 39.0861 20.984 39.0861 18.92ZM54.1341 18.956C54.1341 17.42 53.7021 16.208 52.8381 15.32C51.9981 14.432 50.9661 13.988 49.7421 13.988C48.5181 13.988 47.4741 14.432 46.6101 15.32C45.7701 16.184 45.3501 17.384 45.3501 18.92C45.3501 20.456 45.7701 21.68 46.6101 22.592C47.4741 23.48 48.5181 23.924 49.7421 23.924C50.9661 23.924 51.9981 23.48 52.8381 22.592C53.7021 21.704 54.1341 20.492 54.1341 18.956ZM63.5197 18.92C63.5197 16.856 63.9037 15.044 64.6717 13.484C65.4637 11.924 66.5317 10.724 67.8757 9.884C69.2197 9.044 70.7197 8.624 72.3757 8.624C73.6957 8.624 74.8957 8.9 75.9757 9.452C77.0797 10.004 77.9437 10.748 78.5677 11.684V2.36H84.7237V29H78.5677V26.12C77.9917 27.08 77.1637 27.848 76.0837 28.424C75.0277 29 73.7917 29.288 72.3757 29.288C70.7197 29.288 69.2197 28.868 67.8757 28.028C66.5317 27.164 65.4637 25.952 64.6717 24.392C63.9037 22.808 63.5197 20.984 63.5197 18.92ZM78.5677 18.956C78.5677 17.42 78.1357 16.208 77.2717 15.32C76.4317 14.432 75.3997 13.988 74.1757 13.988C72.9517 13.988 71.9077 14.432 71.0437 15.32C70.2037 16.184 69.7837 17.384 69.7837 18.92C69.7837 20.456 70.2037 21.68 71.0437 22.592C71.9077 23.48 72.9517 23.924 74.1757 23.924C75.3997 23.924 76.4317 23.48 77.2717 22.592C78.1357 21.704 78.5677 20.492 78.5677 18.956ZM92.2733 6.824C91.1933 6.824 90.3053 6.512 89.6093 5.888C88.9373 5.24 88.6013 4.448 88.6013 3.512C88.6013 2.552 88.9373 1.76 89.6093 1.136C90.3053 0.487998 91.1933 0.163998 92.2733 0.163998C93.3293 0.163998 94.1933 0.487998 94.8653 1.136C95.5613 1.76 95.9093 2.552 95.9093 3.512C95.9093 4.448 95.5613 5.24 94.8653 5.888C94.1933 6.512 93.3293 6.824 92.2733 6.824ZM95.3333 8.912V29H89.1773V8.912H95.3333ZM112.035 8.696C114.387 8.696 116.259 9.464 117.651 11C119.067 12.512 119.775 14.6 119.775 17.264V29H113.655V18.092C113.655 16.748 113.307 15.704 112.611 14.96C111.915 14.216 110.979 13.844 109.803 13.844C108.627 13.844 107.691 14.216 106.995 14.96C106.299 15.704 105.951 16.748 105.951 18.092V29H99.7945V8.912H105.951V11.576C106.575 10.688 107.415 9.992 108.471 9.488C109.527 8.96 110.715 8.696 112.035 8.696ZM131.684 8.624C133.1 8.624 134.336 8.912 135.392 9.488C136.472 10.064 137.3 10.82 137.876 11.756V8.912H144.032V28.964C144.032 30.812 143.66 32.48 142.916 33.968C142.196 35.48 141.08 36.68 139.568 37.568C138.08 38.456 136.22 38.9 133.988 38.9C131.012 38.9 128.6 38.192 126.752 36.776C124.904 35.384 123.848 33.488 123.584 31.088H129.668C129.86 31.856 130.316 32.456 131.036 32.888C131.756 33.344 132.644 33.572 133.7 33.572C134.972 33.572 135.98 33.2 136.724 32.456C137.492 31.736 137.876 30.572 137.876 28.964V26.12C137.276 27.056 136.448 27.824 135.392 28.424C134.336 29 133.1 29.288 131.684 29.288C130.028 29.288 128.528 28.868 127.184 28.028C125.84 27.164 124.772 25.952 123.98 24.392C123.212 22.808 122.828 20.984 122.828 18.92C122.828 16.856 123.212 15.044 123.98 13.484C124.772 11.924 125.84 10.724 127.184 9.884C128.528 9.044 130.028 8.624 131.684 8.624ZM137.876 18.956C137.876 17.42 137.444 16.208 136.58 15.32C135.74 14.432 134.708 13.988 133.484 13.988C132.26 13.988 131.216 14.432 130.352 15.32C129.512 16.184 129.092 17.384 129.092 18.92C129.092 20.456 129.512 21.68 130.352 22.592C131.216 23.48 132.26 23.924 133.484 23.924C134.708 23.924 135.74 23.48 136.58 22.592C137.444 21.704 137.876 20.492 137.876 18.956ZM158.995 29.288C157.915 29.288 157.027 28.976 156.331 28.352C155.659 27.704 155.323 26.912 155.323 25.976C155.323 25.016 155.659 24.212 156.331 23.564C157.027 22.916 157.915 22.592 158.995 22.592C160.051 22.592 160.915 22.916 161.587 23.564C162.283 24.212 162.631 25.016 162.631 25.976C162.631 26.912 162.283 27.704 161.587 28.352C160.915 28.976 160.051 29.288 158.995 29.288ZM176.784 29.288C175.704 29.288 174.816 28.976 174.12 28.352C173.448 27.704 173.112 26.912 173.112 25.976C173.112 25.016 173.448 24.212 174.12 23.564C174.816 22.916 175.704 22.592 176.784 22.592C177.84 22.592 178.704 22.916 179.376 23.564C180.072 24.212 180.42 25.016 180.42 25.976C180.42 26.912 180.072 27.704 179.376 28.352C178.704 28.976 177.84 29.288 176.784 29.288ZM194.573 29.288C193.493 29.288 192.605 28.976 191.909 28.352C191.237 27.704 190.901 26.912 190.901 25.976C190.901 25.016 191.237 24.212 191.909 23.564C192.605 22.916 193.493 22.592 194.573 22.592C195.629 22.592 196.493 22.916 197.165 23.564C197.861 24.212 198.209 25.016 198.209 25.976C198.209 26.912 197.861 27.704 197.165 28.352C196.493 28.976 195.629 29.288 194.573 29.288Z" fill="#0AA79B"/>
</svg>
