<svg width="32" height="32" viewBox="0 0 32 32" fill="none" xmlns="http://www.w3.org/2000/svg">
<path d="M19.8336 3.86663L31.0669 15.0666C31.2003 15.2 31.2945 15.3444 31.3496 15.5C31.4056 15.6555 31.4336 15.8222 31.4336 16C31.4336 16.1777 31.4056 16.3444 31.3496 16.5C31.2945 16.6555 31.2003 16.8 31.0669 16.9333L19.8336 28.1666C19.5225 28.4777 19.1336 28.6333 18.6669 28.6333C18.2003 28.6333 17.8003 28.4666 17.4669 28.1333C17.1336 27.8 16.9669 27.4111 16.9669 26.9666C16.9669 26.5222 17.1336 26.1333 17.4669 25.8L27.2669 16L17.4669 6.19997C17.1558 5.88885 17.0003 5.50574 17.0003 5.05063C17.0003 4.59463 17.1669 4.19997 17.5003 3.86663C17.8336 3.5333 18.2225 3.36663 18.6669 3.36663C19.1114 3.36663 19.5003 3.5333 19.8336 3.86663Z" fill="#BCBCBC"/>
</svg>
